<?xml version="1.0" encoding="UTF-8"?>
<svg id="Capa_2" data-name="Capa 2" xmlns="http://www.w3.org/2000/svg" viewBox="0 0 376.89 500.4">
  <defs>
    <style>
      .cls-1 {
        fill: #fff;
      }
    </style>
  </defs>
  <g id="Capa_1-2" data-name="Capa 1">
    <g>
      <path class="cls-1" d="M298.96,475.7c-.96,5.92-1,12.13.04,17.92.8.91,3.69.71,3.6,1.83-.11,1.35.73,4.18-1.34,4.18l-24.76-.05c-3.64-3.84-5.2-8.59-10.02-11.34-1.71,3.93-.45,7.4-.99,10.97-2.3.77-4.69.76-7.4.1l.03-29.48c8.15.22,21.94-2.76,23.28,6.72.56,3.97-.99,7.63-5.11,10.4,2.8,4.65,6.03,8.26,9.41,12.13,1.06-1.66.64-3.23,1.03-4.11.31-.71,2.67-.57,3.46-1.35.86-5.82.74-11.87.06-17.71-1.06-.85-3.14-.7-3.47-1.4-.46-.98-.71-3.42.03-4.58,4.26-.56,9.4-.12,14.42-.26,2.17-.06,1.06,2.22,1.49,3.49.54,1.6-1.44,1.69-3.77,2.55ZM272.66,476.47c-1.22-1.4-5.48-1.96-6.46-.66-1.1,1.46-1.32,5.92.15,6.97,1.71,1.22,5.03.25,6.19-.96,1.01-1.05,1.87-3.34.12-5.36Z"/>
      <path class="cls-1" d="M219.96,499.38l-.78-16.13c-3.11,2.48-2.52,6.2-4.83,8.7-1.27,1.37-4.8,1.12-5.67-.36-1.86-3.17-2.03-6.37-4.52-9.24l-.63,16.86c-2.21.77-4.58.79-6.94,0v-29.27c2.36-.14,6-.98,8.39.09,3.04,3.4,3.71,8.76,6.56,13.01,3.97-3.26,3.69-9.23,7.17-12.69,1.77-1.75,5.8-.45,8.52-.32l.11,29.07c-2.25,1.03-4.63.79-7.4.29Z"/>
      <path class="cls-1" d="M69.95,499.08c-1.57.95-6.06,1.32-7.17-.04l-11.27-18.54-.47,18.84c-2.31.59-4.38.55-6.83.07l.09-29.55c2.89.02,7.17-1.15,9.26.45l9.18,14.7.59-15.04c2.24-.48,4.24-.6,6.67.04l-.05,29.08Z"/>
      <path class="cls-1" d="M112.85,498.6c-5.85,1.92-11.76.89-17.6.99l.02-29.82c6.02.07,11.83-.8,17.42.84,6.3,1.85,9.37,7.85,9.45,13.67.08,5.85-2.72,12.17-9.29,14.32ZM111.15,477.03c-1.86-1.46-6.04-2.58-7.94-1.05-.67,5.49-.88,12.04.09,17.44,2.16,1.61,6.62.14,8.32-1.48,3.64-3.49,3.57-11.74-.47-14.91Z"/>
      <path class="cls-1" d="M324.88,498.6c-5.91,1.92-11.81.87-17.67,1l.02-29.84c6.04.1,11.87-.82,17.44.86,6.31,1.9,9.29,7.85,9.39,13.68.1,5.73-2.76,12.22-9.18,14.31ZM323.14,477.06c-1.89-1.5-6.01-2.59-7.96-1.09-.64,5.45-.9,12.05.09,17.47,2.15,1.57,6.66.09,8.32-1.53,3.65-3.55,3.54-11.68-.46-14.86Z"/>
      <path class="cls-1" d="M31.4,470.05c2.53-.76,4.77-.52,7.33-.13.18,7.01.28,13.82,0,20.85s-6.37,9.64-12.61,9.63-11.98-3.01-12.31-9.88-.11-13.9-.06-20.6c3.07-.37,5.3-.7,7.59.4l.04,18.46c0,3.58,1.72,5.81,5.18,5.68,2.75-.1,4.76-2.13,4.77-5.65l.06-18.75Z"/>
      <path class="cls-1" d="M171.76,498.53c-5.79,2-11.76.99-17.69,1.02l.05-29.72c6.04-.05,11.89-.88,17.41.84,6.25,1.95,9.26,7.83,9.33,13.59.07,5.81-2.57,12.02-9.1,14.27ZM168.98,476.44c-1.75-.94-5.43-1.91-7.16-.46l-.24,17.52c2.82.92,5.91.68,8.45-1.24,4.05-3.07,4.42-12.89-1.04-15.81Z"/>
      <path class="cls-1" d="M143.63,498.85l-1.77-4.34c-.48-1.18-7.67-1.79-9.59-.08-.81.72-.53,2.95-1.54,4.16-1.68,2.03-5.42,1.24-7.6.37l9.71-28.58c2.22-1.27,6.41-1.24,8.62-.13l9.82,28.79c-2.1.76-6.74,2.02-7.65-.19ZM139.74,487.46c-.8-3.32-1.31-5.33-2.64-7.86-1.55,2.71-2.16,5-2.58,7.99,1.67.86,3.61,1.04,5.22-.14Z"/>
      <path class="cls-1" d="M355.58,498.75l-1.76-4.21c-.49-1.17-7.55-1.78-9.55-.11-.86.72-.61,2.88-1.62,4.16-1.59,2-5.48,1.29-7.64.5l9.72-29c2.68-.85,5.29-.5,8.56-.28l9.97,29.3c-2.13.74-6.71,1.93-7.67-.36ZM351.27,487.42c.25-3.14-1.21-5.33-2.15-7.81-1.75,2.68-2.19,5.1-2.78,7.97,1.37.76,4.66,1.02,4.93-.15Z"/>
      <path class="cls-1" d="M251.97,485.85c-3.46,1.65-7.46-.66-10.65,1.21-1.36.8-1.15,5.49.13,6.4l11.32.84c1.16.09,1.06,4.18.01,5.07-6.15.66-13.08.35-19.65.18l-.02-29.76,20.1-.04c.26,1.58.67,4.33-.33,5.26-3.47.99-7.16-.01-10.99.54-1.71.25-1.89,4.28-.47,4.74,3.47,1.14,6.87-.21,10.81.59.24,1.15.67,4.07-.26,4.97Z"/>
      <path class="cls-1" d="M89.99,499.38c-4.69.75-9.16.2-13.98.28-2.23.04-1.08-2.36-1.59-3.38-1.1-2.23,3.14-1.43,3.53-2.74,1.67-5.56.69-11.97.43-17.65-1.22-.85-3.24-.67-3.56-1.38-.42-.97-.68-3.32.02-4.63,17.15-.06,15.37-2.18,15.76,4.12.06,1.04-2.48.93-3.67,1.84-.79,5.83-.9,11.97.06,17.77.96.91,3.77.74,3.64,1.84-.12.99.59,3.72-.65,3.92Z"/>
    </g>
    <path class="cls-1" d="M208.45,326.44c-19.46.49-8.15,2.86-28.51.68l-11.04-1.18-3.78,23.56c-2.24,13.97-15.17,22.55-29.62,18.49-25.05-7.04-47.97-20.54-68.45-37.17-10.28-8.35-26.34-26.57-33.83-38.82-6.49-10.63-1.18-24.07,5.89-28.59,8.02-5.14,16.62-8.74,25.09-13.17-7.46-15.85-8.92-20.7-12.86-38.21l-9.54,1.46-13.11,2.05c-2.62.41-6.84.64-9.77.14-5.98-1.02-12.69-5.54-15.4-11.06C0,197.45-.43,191.62.3,184.21l1.29-13.26c2.82-28.96,10.5-51.61,24.73-76.66,3.31-5.83,7.47-11.28,11.13-16.76,4.33-6.48,9.93-10.48,16.75-11.75,7.98-1.47,15.14,1.42,20.79,7.35l14.52,15.25c9.99-10.06,20.16-18.45,32.73-24.59l-7.77-15.1c-3.61-7.02-7.17-14.55-4.17-22.55,2.41-6.44,7.45-12.07,14.13-14.52,11.06-4.05,22.38-6.38,34.11-8.72,6.2-1.24,12.61-1.3,18.92-2.2,7.3-1.04,14.71-.82,22.15-.01,19.34,2.1,38.71,4.28,56.33,13.71,5.97,3.2,9.79,11.87,9.79,18.64,0,5.69-8.79,21.68-12.15,28.39,12.77,6.82,25.19,14.31,35.46,25.49l13.48-14.33c4.78-5.08,11.83-7.39,18.72-6.99,6.52.37,12.64,4.55,16.96,10.26,8.62,11.4,15.39,23.22,21.61,36.24,6.52,13.67,13.71,38.91,15.21,53.9l1.1,11.02c1.11,11.1,2.42,23.84-7.25,33.04-5.68,5.41-13.01,6.89-20.56,5.68l-19.77-3.18c-3.14,10.49-5.72,20.68-9.73,30.41l-3.58,8.67c6.89,3.37,14.11,6.78,21.5,10.92s10.86,14.1,9.58,22.44c-1.15,7.49-6.44,13.47-11.22,19.44-22.77,28.41-52.5,49.64-86.93,61.57-9.88,3.42-19.07,4.87-27.7-1.55-5.6-4.16-8.25-11.63-9.21-18.31l-2.81-19.7ZM205.03,87.78c.83-6.32,1.91-11.18,2.16-16.8.48-11.09,9.66-22.65,21.48-19.01l14.37,4.42c3.29-3.73,4.03-11.99-1.37-14.06-25.34-9.72-41.09-9.82-67.78-9.17-12.31.3-26.44,4.82-38.51,8.08-3.5.95-6.01,4.48-6.61,7.52-.64,3.23.69,8.39,3.56,9.4,7.01-2.5,13.77-5.46,20.79-6.35,8.2-1.04,16.63,4.81,17.87,13.11l3.43,22.95c16.9-3.71,15.35-.93,30.61-.08ZM155.55,92.01l10.98-3.15-2.08-9.1c-1.12-4.91-6.71-5.45-10.33-4.07l-12.5,4.78,2.36,5.31c2.06,4.64,6.65,7.64,11.57,6.23ZM227.29,89.41c2.63-2.21,4.63-6.95,4.97-10.35-3.64-2.3-9.66-5.22-13.53-3.48-4.55,2.04-6.17,10.45-4.77,14.07,3.44,2.51,10.22,2.38,13.33-.23ZM258.33,145.15l-5.27-7.28c-1.82-2.51-4.82-8.92-2.06-11.75l18.8-19.26c.73-.75,1.96-3.48,1.28-4.17-4.17-4.26-21.85-17.25-29.02-20.27l-9.67,19.23c-1.09,2.17-3.13,5.26-4.53,7.51-1.09,1.76-6.07,3.48-8.12,2.85l-9.94-3.05c-.1,3.89,2.95,5.47,6.1,6.55,14.77,5.09,26.92,13.97,35.99,26.66,1.34,1.88,3.61,2.91,6.43,2.99ZM139.06,129.84c8.29-6.74,16.87-11.5,26.23-15.37,2.91-1.2,4.73-3.32,4.46-6.42l-15.09,4.74c-4.24,1.33-8.32-3.54-10.09-6.96l-11.02-21.28c-7.87,3.88-21.38,14.2-26.5,20.02-.49.55.53,2.84,1.14,3.46l16.21,16.49c7.14,7.27-3.89,16.15-4.74,20.19,4.36,5,12.97-9.66,19.39-14.88ZM65.15,166.8c7.78-.25,15.52,2.54,23.25,3.14,2.04-9.94,4.96-18.53,9.56-27.63-4.21-2.07-8.83-4.58-13.45-6.56-8.97-3.84-16.86-11.65-13.75-22.56,1.68-5.9,7.86-11.03,10.74-16.73-.86-4.82-11.13-8.95-15.13-4.07-19.37,23.68-30.43,52.13-33.34,82.67-.63,6.61.04,13.36.02,19.84-.01,5.79,4.91,7.82,9.92,7.51,2.35-.14,5.35-.55,7-1.48-.38-8.15-1.07-15.74.61-23.55,1.23-5.74,7.87-10.38,14.57-10.59ZM330.18,185.07l-.49,17.38,9.05-.59c4-.26,5.58-5.22,5.56-8.65l-.04-12.21c-.1-26.56-11.77-57.35-26.61-79.39-3.75-5.57-7.58-11.23-13.28-11.59-2.32-.15-5.61,1.85-7.53,3.98,4.86,8.95,11.93,12.3,13.45,24.33l-3.93,9.96c-5.89,4.54-12.11,7.13-18.47,10.51l-8.32,4.42,4.5,10.58c2.2,5.18,3.28,10.66,5.13,16.43l22.86-3.62c10.73-1.7,18.4,8.48,18.12,18.47ZM219.33,244.43l4.92,5.22c.48,3.58,2.14,6.61,4.67,9.82,6.86-4.32,12.13-8.11,17.45-13.95l-8.31-8.58c-2.3-2.38-3.63-6.68-1.59-9.6,5.89-8.4,11.69-17.27,13.21-27.7l1.55-10.62c.47-3.23,0-8.32,1.49-11.04,5.5-2.38,10.42-3.38,16.58-4.16-1.26-7.67-3.67-14.99-7.45-21.94-3.75,1.88-6.25,3.19-9.11,4.85-12.62,7.32-11.5-19.08-45.86-28.74-5.8-1.63-6.87-6.71-5.97-11.97l1.5-8.7-7.54-.62c-5.54-.46-12.89-2.04-17.32,1.83,1.18,6.12,1.98,11.65.16,17.33-9.15,4.83-7.29,1.62-18.79,7.98-17.2,9.5-20.68,24.21-26.65,24.07s-9.01-4.39-17.24-7.4c-3.29,8.07-5.47,14.35-7.51,22.69l16.1,3.6c11.13,2.49-4.11,20.97,20.7,52.01,4,5-9.77,13.11-11.86,19.15,6.42,5.46,12.47,9.44,19.16,13.18l6.52-12.97c2.04-4.05,6.74-5.46,10.88-3.89,29.38,11.12,45.47-4.98,50.3.15ZM283.08,132.43c2.11-1.06,6.02-5.58,5.04-8.02-2.06-5.11-5.28-8.84-9.02-13.06-3.15,2.86-6.61,5.59-8.25,8.46-3.31,5.8.85,11.41,4.77,16.36l7.46-3.75ZM102.8,134.11c3.56-4.56,6.64-9.92,3.49-14.38-1.77-2.5-4.47-4.84-6.98-7.12l-6.31,8.85c-.96,1.35-1.47,5.16-.84,6.62,1.41,3.26,10.48,8.65,10.64,6.03ZM300.11,198.25c1.85.13,3.46.35,6.03.66.08-5.78,2.07-18.42-3.69-21.23-2.19-1.06-11.76.16-12.56,2.25.34,2.56,1.21,6.04,1.04,7.89-.59,6.54,3.07,10,9.19,10.42ZM86.56,190.35l.73-12.33-7.56-.28c-2.69-.1-5.74,2.43-5.78,5.11l-.21,14.52c1.98,1.05,6.07,1.11,8.36-.15,1.78-.98,4.31-4.26,4.47-6.87ZM107.32,229.27c11.36-5.62,14.3,7.9,19.48,12.38,8.5-7.32-5.75-12.99-11.51-38.73-2.94-13.14,2.38-19.35-7.65-21.9-1.71,2.82-1.42,7.2-.74,11.24.51,3.04-2.5,9.58-5.64,10.75-13.61,5.08-27.97,1.66-25.59,9.08l5.57,17.35c1.25,3.91,2.74,7.51,5.03,10.24l21.05-10.42ZM291.87,239.96c3.78,1.45,12.27-26.84,12.6-31.45l-25.01-4.23c-3.33-.56-7.15-2.88-7.9-5.26-3.57-11.23,2.13-3.76-1.99-17.12-3.22,1.27-4.11,3.98-3.83,7.14,1.31,14.81-8.17,34.19-15.66,45.56-.7,1.06.59,4.87,1.32,4.38,5.77-3.96,4.9-7.99,10.02-9.95,8.16-3.13,16.25,5.5,30.46,10.94ZM112.45,254.67l-8.49-9.76c-5.21-.28-8.98-.08-13.32,3.28,2.4,4.2,4.8,9.06,8.43,11.85,4.8,3.68,10.79,0,13.38-5.36ZM282.56,258.11l5.73-8.51c-4.11-2.64-8.89-5.58-14.14-4.38-4,.91-6.55,5.78-8.23,9.05l6.29,5.6c3.23,2.87,8,1.73,10.35-1.76ZM202.05,285.01c-.68-4.27-1.41-10.95.99-14.49,6.31-3.2,12.31-5.1,18.96-7.41-1.79-3.78-4.83-5.32-8.75-3.99-14.75,5.03-30.94,4.89-45.78.29-3.98-1.23-8.11-.02-8.65,4.86,4.61,2.01,10.21,3.06,14.07,5.81,3.82,2.73,2.8,9.45,2.24,13.16l-2.8,18.54c11.16,2.23,22.51,2.77,32.44.14l-2.71-16.93ZM131.53,300.76c.35-2.37,8.28-19.05,10.93-21.99-8.36-5.17-16.66-10.42-23.93-17.86l-15.12,14.56c-6.15,5.92-15.76,6.23-22.44.29-4.69-4.16-7.35-9.89-11.45-16.04-4.36,1.65-12.12,6.4-10.52,12.31,1.34,4.95,5.81,10.57,9.26,14.57,19.89,24.49,49.84,44.88,80.56,51.69,6.56.47,10.61-9.75,8.89-14.54l-9.29-2.46c-8.74-2.31-18.49-9.66-16.87-20.54ZM228.81,338.27c27.79-6.99,51.59-21.71,71.13-42.17,7.09-7.42,14.33-14.55,17.94-24.37,1.89-5.12-4.28-9.7-8.8-10.37-3.06,4.42-5.58,8.73-9.02,12.7-5.34,6.17-14.96,8.67-21.5,3.08-6.32-5.4-11.51-11.03-17.93-17.36-9.38,6.58-11.24,10.97-23.13,16.82,3.2,6.84,7.41,14.19,10.15,21.03,4.27,10.66-2.67,19.78-12.43,22.44l-16.82,4.58,2.47,8.62c.66,2.31,5.53,5.61,7.94,5ZM234.38,291.39c.54-3.88-4.1-10.85-4.79-10.57l-3.3,1.36c-3.1,1.29-7.31,2.38-10.02,4.06-5.29,3.28-3.98,10.32-1.92,14.67,5.57-1.61,19.19-3.4,20.04-9.52ZM162.65,300.1c3.46-5.52,1.83-12.47-4.04-14.72l-8.87-3.39c-1.51,2.57-3.84,7.69-2.64,10.74,1.39,3.53,6.53,4.78,9.58,5.66l5.97,1.71Z"/>
    <g>
      <path class="cls-1" d="M16.22,416.93c-1.43,11.14,2.54,23.3,14.57,23.3,6.36,0,10.97-3.94,16.41-8l.22,13.87c-8.59,5.87-18.99,7.65-29.32,4.15-20.3-6.88-22.04-35.44-11.75-48.19,8.24-10.21,24.26-11.93,33.76-8.29l7.22,2.77-.08,14.67c-9.37-5.84-17.89-11.76-26.59-3.19-2.5,2.46-3.98,5.35-4.44,8.9Z"/>
      <path class="cls-1" d="M290.46,428.25c7.69-7.87,24.15-5.09,23.08-7.57-4.77-11-17.68-.6-23.66-2.45l.76-10.4,10.6-2.27c5.84-1.25,25.82.07,25.84,13.62l.07,31.67-11.97.17c-.48,0-1.92-1.38-1.94-1.84l-.13-2.69c-6.24,5.98-14.24,7.53-20.79,2.26-5.88-4.73-8.15-14.06-1.87-20.49ZM312.86,435.13c-.07-1.79-.41-4.47-1.5-4.34l-4.39.53c-2.17.26-5.16,1.76-5.38,3.44-.24,1.9.04,5.07,1.38,5.79,1.58.85,4.46,1.1,6.41.52,2.67-.79,3.59-3.25,3.48-5.94Z"/>
      <path class="cls-1" d="M186.69,438.97c8.97,6.39,16.32-.68,24.14-2.69l.31,11.56c-8.78,3.13-13.67,5.22-22.77,3.54-7.56-1.39-14.48-5.17-17.45-12.17-2.71-6.4-2.81-12.43-.65-18.75,3.78-11.08,15.13-16.27,24.91-14.64,7.55,1.26,13.81,4.9,16.02,12.66,1.23,4.32,2.11,9.17.86,13.16l-28.67.27c.34,2.8,1.48,5.77,3.29,7.05ZM198.22,422.92c-.47-7.48-4.71-7.9-8.73-7.65-3.45.21-6.37,3.78-5.65,7.95l14.38-.3Z"/>
      <path class="cls-1" d="M91.59,419.9l.15,30.64c-4.32.87-8.98.52-13.55-.65l.02-42.34,14.01-.17-.41,3.67c6.05-4.3,13.29-6.83,20.36-3.12,3.89,2.04,6.09,7.6,6.09,11.99v31.02s-13.2,0-13.2,0l-.5-26.41c-.04-1.98-1.8-6.35-3.81-6.65-2.98-.44-5.73.68-9.16,2.02Z"/>
      <path class="cls-1" d="M239.15,450.77c-5.12,1.25-9.08,1.67-13.59.37l-11.01-3.18.49-11.03c1.55-.44,3.88.42,5.43,1.46,6.53,4.35,17.33,4.44,17.49.14.24-6.57-22.3-.04-22.27-17.92,0-5.33,3.23-10.48,8.82-12.42,8.43-2.91,17.07-2.92,25.52.77l.15,11.57-5.72-2.65c-3.75-1.74-12.96-4.38-14.66,1.22.2,6.17,18.34,1.26,22.08,13.13,2.94,9.34-3.97,16.39-12.73,18.54Z"/>
      <path class="cls-1" d="M362.3,407.42l14.4.2-15.2,43.3-14.68.12-15.65-43.68h14.51c.8,1.89,1.84,4.71,2.52,6.86l6.03,19.12,8.06-25.92Z"/>
      <path class="cls-1" d="M153.48,407.33l14.5.26-14.42,39.77c-.25.68-.11,3.01-.83,3.04l-3.32.13-11.51.37-15.58-43.32,14.88-.12,8.01,25.94c1.78-4.95,3.3-9.2,4.8-14.28l3.49-11.79Z"/>
      <path class="cls-1" d="M284.84,439.74l.21,10.48-13.61.73c-3.15.17-7.72-1.47-9.61-3.52-2.63-2.87-2.93-6.52-2.9-10.27l.13-20.1-4.82.65-.18-9.83,4.94-1.5.21-10.83,13.92-.21c-.7,4.09-.78,7.56-.69,11.92l12.37.28c.55,2.51.62,7.02-.1,9.51l-12.29-.1c.12,7.3-.28,13.87.72,20.52.66,4.43,6.7,4.24,11.69,2.26Z"/>
      <path class="cls-1" d="M68.39,450.76c-4.61.29-8.77.29-13.43-.02l-.38-43.35,13.72.02.09,43.35Z"/>
      <polygon class="cls-1" points="69.69 401.56 53.97 401.9 54.42 390.48 68.99 389.97 69.69 401.56"/>
    </g>
  </g>
</svg>