<?xml version="1.0" encoding="UTF-8"?>
<svg id="Capa_2" data-name="Capa 2" xmlns="http://www.w3.org/2000/svg" viewBox="0 0 355.36 355.36">
  <defs>
    <style>
      .cls-1 {
        fill: #f2f2f2;
      }
    </style>
  </defs>
  <g id="Capa_1-2" data-name="Capa 1">
    <g>
      <path class="cls-1" d="M355.36,177.68c0,98.13-79.55,177.68-177.68,177.68S0,275.81,0,177.68,79.55,0,177.68,0s177.68,79.55,177.68,177.68ZM123.12,78.86c0-7.73-6.27-14-14-14s-14,6.27-14,14,6.27,14,14,14,14-6.27,14-14ZM119.88,109.91h-21.49v148.57h21.49V109.91ZM287.89,180.1c-1.6-29.29-18.77-54.48-46.3-64.76-9.11-3.16-18.24-5.34-28.08-5.36l-62.27-.07v148.67s59.49-.01,59.49-.01c8.21,0,15.91-1.3,23.52-3.46,33.21-9.52,55.53-40.35,53.64-75.02Z"/>
      <path class="cls-1" d="M263.94,167.58c7.16,26.9-4.22,56.47-30.84,67.1-7.69,2.91-15.47,4.55-23.8,4.57l-36.8.09v-110.3s37.39.18,37.39.18c9.19.04,17.8,2.18,26.11,5.72,13.97,6.16,24.02,17.91,27.94,32.65Z"/>
    </g>
  </g>
</svg>