<?xml version="1.0" encoding="UTF-8"?>
<svg id="Capa_2" data-name="Capa 2" xmlns="http://www.w3.org/2000/svg" viewBox="0 0 322.68 284.41">
  <defs>
    <style>
      .cls-1 {
        fill: #f2f2f2;
      }
    </style>
  </defs>
  <g id="Capa_1-2" data-name="Capa 1">
    <path class="cls-1" d="M321.65,53.16l-3.74,43.42c-1.23,14.27-2.62,37.16-11.87,48.09-1.7,2.01-2.81,3.86-4.33,5.92-14.98,20.3-45.06,25.72-69.34,23.81l16.48,5.22c1.44.45,2.56,1.23,2.49,2.54l1.2.19c11.62,1.61,21.96,10.15,29.03,19.46,14.89,23.33-.82,44.42-17.15,60.24-19.26,18.67-45.06,32.8-68.94,12.19-17.32-14.93-26.14-39.52-34.14-61.36-8.39,21.94-16.81,47.23-35.14,61.99-24.71,20.27-50.79,4.42-69.93-14.52-8.36-8.27-15.76-17.13-19.38-28.68-5.95-19,3.63-33.78,19.33-43.81,10.5-6.69,21.79-9.68,33.44-13.33-20.9,1.2-43.93-1.94-60.22-15.28-12.4-10.16-20.36-23.9-22.24-39.91l-2.62-22.3c-.11-.94.05-1.41-.06-1.77l-2.25-24.16-1.09-14.9C.19,42.77-1.69,25.08,3.33,13.23,7.27,3.94,16.34-.94,26.58.15c5.47.59,11.36,1.22,16.71,3.54,17.24,7.49,32.14,18.66,45.72,32.04,27.36,26.96,49.65,57.52,69.12,90.49.88,1.5,1.81,2.94,2.85,3.28,1.6.52,3.77-1.47,4.01-3.01.76-4.92,3.84-7.04,6.17-10.86,18.06-29.7,38.9-56.6,63.56-81.22,4.6-4.59,9.26-8.51,14.26-12.84,2.91-2.52,18.68-11.45,19.81-12.93,2.44-3.21,5.78-2.88,9.04-4.05,14.48-5.21,31.96-8.95,40.63,6.7,5.84,10.55,4.26,29.43,3.19,41.87Z"/>
  </g>
</svg>