<?xml version="1.0" encoding="UTF-8"?>
<svg id="Capa_2" data-name="Capa 2" xmlns="http://www.w3.org/2000/svg" viewBox="0 0 265.81 259.98">
  <g id="Capa_1-2" data-name="Capa 1">
    <path d="M58.49,80.99c-25.56,27.84-24.56,75.34,9.77,97.6,10.95,7.1,23.24,11.33,36.49,13.73-1.44,5.69-2.27,11.18-2.75,17.96-9.78,3.94-21.65,2.85-30.99-2.69-4.54-2.69-7.63-6.95-10.62-11.23-9.34-13.37-25.06-12.35-25.1-9.09-.06,4.48,10.61,6.78,15.94,20.33,8.49,21.55,28.48,27.98,50.85,23.41l.14,18.16c.03,3.94-4.93,12.24-10.29,10.53C29.92,239.89-7.71,178,1.34,114.26,10.28,51.24,63.25,2.6,127.75.1c66.3-2.56,123.88,44.28,135.81,108.58,12.15,65.51-25.72,130.62-89.9,151.11-4.65,1.48-9.99-6.08-10-9.84l-.12-44.23c-.01-4.37-1.06-8.73-2.48-13.27,35.75-6.67,64.87-27.39,63.97-67.65-.38-16.89-6.47-31.56-16.31-44.47,2.82-11.6,6.02-28.48-3.67-38.72-14.5-1.55-29.07,6.75-39.22,16.79-21.76-6.03-44.16-6.16-65.96.27-10.22-10.13-23.86-18.25-39.12-17.21-8.69,10.11-8.29,27.09-2.25,39.54Z"/>
  </g>
</svg>